<svg xmlns="http://www.w3.org/2000/svg" viewBox="0 0 112.43 119.22"><defs><style>.cls-1{fill:#54b8ad;}</style></defs><g id="Layer_2" data-name="Layer 2"><g id="Layer_2-2" data-name="Layer 2"><path class="cls-1" d="M56.21,25C61,21.76,105,36.37,105,36.37l7.47-29.16L78.81,0C10.69,53.63,0,119.21,0,119.21H3.31c2.63-12,5.24-20.07,8.11-26.34,0,0,6.4-3,29.37,1.18l3.73-8.61,19.71,5.4-5.07,7.29c8,2,17.23,4.72,27.89,8.2l9.33-36.48S34.53,53.78,30.16,57.3l5.06-7.53A160.82,160.82,0,0,1,56.21,25ZM51.3,77c1.52-4,5-6.5,7.68-5.48s3.68,5.14,2.15,9.19-5,6.5-7.68,5.48S49.77,81.07,51.3,77Z"/><path class="cls-1" d="M59.16,98.14,44.48,119.22H29.88L40.79,94.06C46,95,52.1,96.32,59.16,98.14Z"/></g></g></svg>